<mxfile host="Electron" modified="2024-05-31T13:08:51.934Z" agent="Mozilla/5.0 (Windows NT 10.0; Win64; x64) AppleWebKit/537.36 (KHTML, like Gecko) draw.io/24.4.8 Chrome/124.0.6367.207 Electron/30.0.6 Safari/537.36" etag="rEfBug9HommG9Fz-Qh4X" version="24.4.8" type="device">
  <diagram name="第 1 页" id="bbYAsJ9AS1H-cQh3gX90">
    <mxGraphModel dx="2074" dy="1197" grid="1" gridSize="10" guides="1" tooltips="1" connect="1" arrows="1" fold="1" page="1" pageScale="1" pageWidth="690" pageHeight="980" math="0" shadow="0">
      <root>
        <mxCell id="0" />
        <mxCell id="1" parent="0" />
        <mxCell id="YPaQVUYAeXkpW8j93ved-6" value="" style="rounded=1;whiteSpace=wrap;html=1;dashed=1;dashPattern=8 8;fillColor=#fad7ac;strokeColor=#b46504;sketch=1;curveFitting=1;jiggle=2;" vertex="1" parent="1">
          <mxGeometry x="30" y="230" width="720" height="340" as="geometry" />
        </mxCell>
        <mxCell id="YPaQVUYAeXkpW8j93ved-7" value="" style="rounded=1;whiteSpace=wrap;html=1;dashed=1;dashPattern=8 8;fillColor=#fad7ac;strokeColor=#b46504;sketch=1;curveFitting=1;jiggle=2;" vertex="1" parent="1">
          <mxGeometry x="860" y="310" width="830" height="190" as="geometry" />
        </mxCell>
        <mxCell id="JGUKwS1q1bDIkYwTgo52-17" value="" style="rounded=0;whiteSpace=wrap;html=1;sketch=1;curveFitting=1;jiggle=2;fillColor=#C8E6D0;strokeColor=#0e8088;" parent="1" vertex="1">
          <mxGeometry x="10" y="10" width="1710" height="870" as="geometry" />
        </mxCell>
        <mxCell id="vOWczvrueF11Am09t13T-1" value="&lt;i&gt;&lt;font size=&quot;1&quot; style=&quot;&quot; face=&quot;Courier New&quot;&gt;&lt;b style=&quot;font-size: 18px;&quot;&gt;UserInfo queryUserInfoByToken(String loginToken);&lt;/b&gt;&lt;/font&gt;&lt;/i&gt;" style="rounded=1;whiteSpace=wrap;html=1;fillColor=#fff2cc;strokeColor=#d6b656;sketch=1;curveFitting=1;jiggle=2;" parent="1" vertex="1">
          <mxGeometry x="120" y="280" width="620" height="90" as="geometry" />
        </mxCell>
        <mxCell id="JGUKwS1q1bDIkYwTgo52-1" value="&lt;i&gt;&lt;font size=&quot;1&quot; style=&quot;&quot; face=&quot;Courier New&quot;&gt;&lt;b style=&quot;font-size: 18px;&quot;&gt;List&amp;lt;TaskInfo&amp;gt; queryUserTaskInfos(UserInfo user);&lt;/b&gt;&lt;/font&gt;&lt;/i&gt;" style="rounded=1;whiteSpace=wrap;html=1;fillColor=#fff2cc;strokeColor=#d6b656;sketch=1;curveFitting=1;jiggle=2;" parent="1" vertex="1">
          <mxGeometry x="120" y="440" width="620" height="90" as="geometry" />
        </mxCell>
        <mxCell id="JGUKwS1q1bDIkYwTgo52-2" value="&lt;i&gt;&lt;font size=&quot;1&quot; style=&quot;&quot; face=&quot;Courier New&quot;&gt;&lt;b style=&quot;font-size: 18px;&quot;&gt;WeatherInfo queryWeather(Double&amp;nbsp;&lt;/b&gt;&lt;/font&gt;&lt;/i&gt;&lt;span style=&quot;background-color: initial; font-size: 18px;&quot;&gt;&lt;font face=&quot;Courier New&quot;&gt;&lt;b&gt;&lt;i&gt;latitude, Double&amp;nbsp;&lt;/i&gt;&lt;/b&gt;&lt;/font&gt;&lt;/span&gt;&lt;i&gt;&lt;font style=&quot;&quot; face=&quot;Courier New&quot;&gt;&lt;span style=&quot;font-size: 18px;&quot;&gt;&lt;b&gt;Longitude&lt;/b&gt;&lt;/span&gt;&lt;b style=&quot;font-size: 18px;&quot;&gt;);&lt;/b&gt;&lt;/font&gt;&lt;/i&gt;" style="rounded=1;whiteSpace=wrap;html=1;fillColor=#fff2cc;strokeColor=#d6b656;sketch=1;curveFitting=1;jiggle=2;" parent="1" vertex="1">
          <mxGeometry x="880" y="370" width="740" height="90" as="geometry" />
        </mxCell>
        <mxCell id="JGUKwS1q1bDIkYwTgo52-3" value="&lt;i&gt;&lt;font size=&quot;1&quot; style=&quot;&quot; face=&quot;Courier New&quot;&gt;&lt;b style=&quot;font-size: 18px;&quot;&gt;MajorPageResponse buildResponse(UserInfo&amp;nbsp;&lt;/b&gt;&lt;/font&gt;&lt;/i&gt;&lt;span style=&quot;background-color: initial; font-size: 18px;&quot;&gt;&lt;font face=&quot;Courier New&quot;&gt;&lt;b&gt;&lt;i&gt;userInfo,&amp;nbsp;&lt;/i&gt;&lt;/b&gt;&lt;/font&gt;&lt;/span&gt;&lt;div&gt;&lt;span style=&quot;background-color: initial; font-size: 18px;&quot;&gt;&lt;font face=&quot;Courier New&quot;&gt;&lt;b&gt;&lt;i&gt;List&amp;lt;TaskInfo&amp;gt; taskInfos, WeatherInfo weatherInfo&lt;/i&gt;&lt;/b&gt;&lt;/font&gt;&lt;/span&gt;&lt;i&gt;&lt;font style=&quot;&quot; face=&quot;Courier New&quot;&gt;&lt;b style=&quot;font-size: 18px;&quot;&gt;);&lt;/b&gt;&lt;/font&gt;&lt;/i&gt;&lt;/div&gt;" style="rounded=1;whiteSpace=wrap;html=1;fillColor=#fff2cc;strokeColor=#d6b656;sketch=1;curveFitting=1;jiggle=2;" parent="1" vertex="1">
          <mxGeometry x="355" y="600" width="740" height="90" as="geometry" />
        </mxCell>
        <mxCell id="JGUKwS1q1bDIkYwTgo52-4" value="&lt;font face=&quot;Courier New&quot; size=&quot;1&quot;&gt;&lt;i&gt;&lt;b style=&quot;font-size: 18px;&quot;&gt;MajorPageRequest&lt;/b&gt;&lt;/i&gt;&lt;/font&gt;" style="swimlane;fontStyle=0;childLayout=stackLayout;horizontal=1;startSize=30;horizontalStack=0;resizeParent=1;resizeParentMax=0;resizeLast=0;collapsible=1;marginBottom=0;whiteSpace=wrap;html=1;fillColor=#f8cecc;strokeColor=#b85450;sketch=1;curveFitting=1;jiggle=2;rounded=1;" parent="1" vertex="1">
          <mxGeometry x="355" y="80" width="270" height="120" as="geometry" />
        </mxCell>
        <mxCell id="JGUKwS1q1bDIkYwTgo52-5" value="&lt;span style=&quot;background-color: initial; text-align: center; font-size: 18px;&quot;&gt;&lt;font face=&quot;Courier New&quot;&gt;&lt;b&gt;&lt;i&gt;Double&amp;nbsp;&lt;/i&gt;&lt;/b&gt;&lt;/font&gt;&lt;/span&gt;&lt;i style=&quot;text-align: center;&quot;&gt;&lt;font face=&quot;Courier New&quot;&gt;&lt;span style=&quot;font-size: 18px;&quot;&gt;&lt;b&gt;Longitude&lt;/b&gt;&lt;/span&gt;&lt;/font&gt;&lt;/i&gt;" style="text;strokeColor=#b85450;fillColor=#f8cecc;align=left;verticalAlign=middle;spacingLeft=4;spacingRight=4;overflow=hidden;points=[[0,0.5],[1,0.5]];portConstraint=eastwest;rotatable=0;whiteSpace=wrap;html=1;sketch=1;curveFitting=1;jiggle=2;rounded=1;" parent="JGUKwS1q1bDIkYwTgo52-4" vertex="1">
          <mxGeometry y="30" width="270" height="30" as="geometry" />
        </mxCell>
        <mxCell id="JGUKwS1q1bDIkYwTgo52-6" value="&lt;i style=&quot;text-align: center;&quot;&gt;&lt;font size=&quot;1&quot; face=&quot;Courier New&quot;&gt;&lt;b style=&quot;font-size: 18px;&quot;&gt;Double&amp;nbsp;&lt;/b&gt;&lt;/font&gt;&lt;/i&gt;&lt;span style=&quot;text-align: center; background-color: initial; font-size: 18px;&quot;&gt;&lt;font face=&quot;Courier New&quot;&gt;&lt;b&gt;&lt;i&gt;latitude&lt;/i&gt;&lt;/b&gt;&lt;/font&gt;&lt;/span&gt;" style="text;strokeColor=#b85450;fillColor=#f8cecc;align=left;verticalAlign=middle;spacingLeft=4;spacingRight=4;overflow=hidden;points=[[0,0.5],[1,0.5]];portConstraint=eastwest;rotatable=0;whiteSpace=wrap;html=1;sketch=1;curveFitting=1;jiggle=2;rounded=1;" parent="JGUKwS1q1bDIkYwTgo52-4" vertex="1">
          <mxGeometry y="60" width="270" height="30" as="geometry" />
        </mxCell>
        <mxCell id="JGUKwS1q1bDIkYwTgo52-7" value="&lt;i style=&quot;text-align: center;&quot;&gt;&lt;font size=&quot;1&quot; face=&quot;Courier New&quot;&gt;&lt;b style=&quot;font-size: 18px;&quot;&gt;String loginToken&lt;/b&gt;&lt;/font&gt;&lt;/i&gt;" style="text;strokeColor=#b85450;fillColor=#f8cecc;align=left;verticalAlign=middle;spacingLeft=4;spacingRight=4;overflow=hidden;points=[[0,0.5],[1,0.5]];portConstraint=eastwest;rotatable=0;whiteSpace=wrap;html=1;sketch=1;curveFitting=1;jiggle=2;rounded=1;" parent="JGUKwS1q1bDIkYwTgo52-4" vertex="1">
          <mxGeometry y="90" width="270" height="30" as="geometry" />
        </mxCell>
        <mxCell id="JGUKwS1q1bDIkYwTgo52-9" value="" style="curved=1;endArrow=classic;html=1;rounded=0;fillColor=#d5e8d4;strokeColor=#82b366;sketch=1;curveFitting=1;jiggle=2;entryX=0.823;entryY=0.222;entryDx=0;entryDy=0;entryPerimeter=0;" parent="1" target="vOWczvrueF11Am09t13T-1" edge="1">
          <mxGeometry width="50" height="50" relative="1" as="geometry">
            <mxPoint x="630" y="190" as="sourcePoint" />
            <mxPoint x="610" y="320" as="targetPoint" />
            <Array as="points">
              <mxPoint x="720" y="220" />
            </Array>
          </mxGeometry>
        </mxCell>
        <mxCell id="JGUKwS1q1bDIkYwTgo52-10" value="" style="curved=1;endArrow=classic;html=1;rounded=0;fillColor=#d5e8d4;strokeColor=#82b366;sketch=1;curveFitting=1;jiggle=2;exitX=0.177;exitY=0.778;exitDx=0;exitDy=0;exitPerimeter=0;entryX=0.839;entryY=0.333;entryDx=0;entryDy=0;entryPerimeter=0;" parent="1" source="vOWczvrueF11Am09t13T-1" target="JGUKwS1q1bDIkYwTgo52-1" edge="1">
          <mxGeometry width="50" height="50" relative="1" as="geometry">
            <mxPoint x="250" y="350" as="sourcePoint" />
            <mxPoint x="600" y="410" as="targetPoint" />
            <Array as="points">
              <mxPoint x="320" y="390" />
              <mxPoint x="550" y="390" />
            </Array>
          </mxGeometry>
        </mxCell>
        <mxCell id="JGUKwS1q1bDIkYwTgo52-11" value="" style="curved=1;endArrow=classic;html=1;rounded=0;fillColor=#d5e8d4;strokeColor=#82b366;sketch=1;curveFitting=1;jiggle=2;entryX=0.595;entryY=0.333;entryDx=0;entryDy=0;entryPerimeter=0;" parent="1" target="JGUKwS1q1bDIkYwTgo52-2" edge="1">
          <mxGeometry width="50" height="50" relative="1" as="geometry">
            <mxPoint x="640" y="160" as="sourcePoint" />
            <mxPoint x="820" y="500" as="targetPoint" />
            <Array as="points">
              <mxPoint x="1060" y="230" />
            </Array>
          </mxGeometry>
        </mxCell>
        <mxCell id="JGUKwS1q1bDIkYwTgo52-12" value="" style="curved=1;endArrow=classic;html=1;rounded=0;fillColor=#d5e8d4;strokeColor=#82b366;sketch=1;curveFitting=1;jiggle=2;entryX=0.851;entryY=0.222;entryDx=0;entryDy=0;entryPerimeter=0;" parent="1" target="JGUKwS1q1bDIkYwTgo52-2" edge="1">
          <mxGeometry width="50" height="50" relative="1" as="geometry">
            <mxPoint x="630" y="120" as="sourcePoint" />
            <mxPoint x="560" y="570" as="targetPoint" />
            <Array as="points">
              <mxPoint x="1150" y="220" />
            </Array>
          </mxGeometry>
        </mxCell>
        <mxCell id="JGUKwS1q1bDIkYwTgo52-13" value="" style="curved=1;endArrow=classic;html=1;rounded=0;fillColor=#d5e8d4;strokeColor=#82b366;sketch=1;curveFitting=1;jiggle=2;exitX=0.065;exitY=0.778;exitDx=0;exitDy=0;exitPerimeter=0;" parent="1" source="vOWczvrueF11Am09t13T-1" edge="1">
          <mxGeometry width="50" height="50" relative="1" as="geometry">
            <mxPoint x="20" y="400" as="sourcePoint" />
            <mxPoint x="915" y="620" as="targetPoint" />
            <Array as="points">
              <mxPoint x="30" y="460" />
              <mxPoint x="200" y="600" />
              <mxPoint x="620" y="560" />
            </Array>
          </mxGeometry>
        </mxCell>
        <mxCell id="JGUKwS1q1bDIkYwTgo52-14" value="" style="curved=1;endArrow=classic;html=1;rounded=0;fillColor=#d5e8d4;strokeColor=#82b366;sketch=1;curveFitting=1;jiggle=2;entryX=0.392;entryY=0.778;entryDx=0;entryDy=0;entryPerimeter=0;" parent="1" target="JGUKwS1q1bDIkYwTgo52-3" edge="1">
          <mxGeometry width="50" height="50" relative="1" as="geometry">
            <mxPoint x="160" y="500" as="sourcePoint" />
            <mxPoint x="680" y="860" as="targetPoint" />
            <Array as="points">
              <mxPoint x="60" y="590" />
              <mxPoint x="190" y="750" />
            </Array>
          </mxGeometry>
        </mxCell>
        <mxCell id="JGUKwS1q1bDIkYwTgo52-15" value="" style="curved=1;endArrow=classic;html=1;rounded=0;fillColor=#d5e8d4;strokeColor=#82b366;sketch=1;curveFitting=1;jiggle=2;exitX=0.176;exitY=0.667;exitDx=0;exitDy=0;exitPerimeter=0;" parent="1" source="JGUKwS1q1bDIkYwTgo52-2" edge="1">
          <mxGeometry width="50" height="50" relative="1" as="geometry">
            <mxPoint x="280" y="550" as="sourcePoint" />
            <mxPoint x="1000" y="650" as="targetPoint" />
            <Array as="points">
              <mxPoint x="1140" y="580" />
            </Array>
          </mxGeometry>
        </mxCell>
        <mxCell id="JGUKwS1q1bDIkYwTgo52-18" value="&lt;div style=&quot;text-align: center;&quot;&gt;&lt;span style=&quot;background-color: initial; font-size: 18px;&quot;&gt;&lt;font face=&quot;Courier New&quot;&gt;&lt;b&gt;&lt;i&gt;returnObj&lt;/i&gt;&lt;/b&gt;&lt;/font&gt;&lt;/span&gt;&lt;/div&gt;" style="text;strokeColor=#10739e;fillColor=#b1ddf0;align=left;verticalAlign=middle;spacingLeft=4;spacingRight=4;overflow=hidden;points=[[0,0.5],[1,0.5]];portConstraint=eastwest;rotatable=0;whiteSpace=wrap;html=1;sketch=1;curveFitting=1;jiggle=2;rounded=1;" parent="1" vertex="1">
          <mxGeometry x="460" y="800" width="110" height="30" as="geometry" />
        </mxCell>
        <mxCell id="JGUKwS1q1bDIkYwTgo52-19" value="" style="curved=1;endArrow=classic;html=1;rounded=0;fillColor=#d5e8d4;strokeColor=#82b366;sketch=1;curveFitting=1;jiggle=2;entryX=0;entryY=0.5;entryDx=0;entryDy=0;exitX=0.108;exitY=0.444;exitDx=0;exitDy=0;exitPerimeter=0;" parent="1" source="JGUKwS1q1bDIkYwTgo52-3" target="JGUKwS1q1bDIkYwTgo52-18" edge="1">
          <mxGeometry width="50" height="50" relative="1" as="geometry">
            <mxPoint x="150" y="760" as="sourcePoint" />
            <mxPoint x="240" y="900" as="targetPoint" />
            <Array as="points">
              <mxPoint x="230" y="770" />
            </Array>
          </mxGeometry>
        </mxCell>
        <mxCell id="JGUKwS1q1bDIkYwTgo52-20" value="&lt;i style=&quot;font-family: &amp;quot;Courier New&amp;quot;; font-size: x-small; text-align: center;&quot;&gt;&lt;b style=&quot;font-size: 18px;&quot;&gt;MajorPagePipeline&lt;/b&gt;&lt;/i&gt;" style="text;strokeColor=none;fillColor=none;align=left;verticalAlign=middle;spacingLeft=4;spacingRight=4;overflow=hidden;points=[[0,0.5],[1,0.5]];portConstraint=eastwest;rotatable=0;whiteSpace=wrap;html=1;" parent="1" vertex="1">
          <mxGeometry x="60" y="30" width="200" height="30" as="geometry" />
        </mxCell>
        <mxCell id="JGUKwS1q1bDIkYwTgo52-24" value="" style="rounded=1;whiteSpace=wrap;html=1;sketch=1;jiggle=2;curveFitting=1;strokeColor=#b85450;align=center;verticalAlign=middle;fontFamily=Helvetica;fontSize=12;fontColor=default;fontStyle=0;fillColor=#f8cecc;" parent="1" vertex="1">
          <mxGeometry x="1280" y="60" width="70" height="30" as="geometry" />
        </mxCell>
        <mxCell id="JGUKwS1q1bDIkYwTgo52-25" value="" style="shape=flexArrow;endArrow=classic;html=1;rounded=0;exitX=0.098;exitY=1.033;exitDx=0;exitDy=0;exitPerimeter=0;entryX=0.098;entryY=-0.033;entryDx=0;entryDy=0;entryPerimeter=0;" parent="1" edge="1">
          <mxGeometry width="50" height="50" relative="1" as="geometry">
            <mxPoint x="980" y="60" as="sourcePoint" />
            <mxPoint x="980" y="104" as="targetPoint" />
          </mxGeometry>
        </mxCell>
        <mxCell id="JGUKwS1q1bDIkYwTgo52-26" value="" style="rounded=1;whiteSpace=wrap;html=1;sketch=1;jiggle=2;curveFitting=1;strokeColor=#d6b656;align=center;verticalAlign=middle;fontFamily=Helvetica;fontSize=12;fontColor=default;fontStyle=0;fillColor=#fff2cc;" parent="1" vertex="1">
          <mxGeometry x="1280" y="110" width="70" height="30" as="geometry" />
        </mxCell>
        <mxCell id="JGUKwS1q1bDIkYwTgo52-28" value="" style="rounded=1;whiteSpace=wrap;html=1;sketch=1;jiggle=2;curveFitting=1;strokeColor=#10739e;align=left;verticalAlign=middle;fontFamily=Helvetica;fontSize=12;fontColor=default;fontStyle=0;fillColor=#b1ddf0;spacingLeft=4;spacingRight=4;gradientColor=none;" parent="1" vertex="1">
          <mxGeometry x="1280" y="160" width="70" height="30" as="geometry" />
        </mxCell>
        <mxCell id="JGUKwS1q1bDIkYwTgo52-29" value="&lt;div style=&quot;text-align: center;&quot;&gt;&lt;span style=&quot;background-color: initial; font-size: 18px;&quot;&gt;&lt;font face=&quot;Courier New&quot;&gt;初始入参(initValue)&lt;/font&gt;&lt;/span&gt;&lt;/div&gt;" style="text;strokeColor=none;fillColor=none;align=left;verticalAlign=middle;spacingLeft=4;spacingRight=4;overflow=hidden;points=[[0,0.5],[1,0.5]];portConstraint=eastwest;rotatable=0;whiteSpace=wrap;html=1;" parent="1" vertex="1">
          <mxGeometry x="1360" y="60" width="210" height="30" as="geometry" />
        </mxCell>
        <mxCell id="JGUKwS1q1bDIkYwTgo52-31" value="&lt;div style=&quot;text-align: center;&quot;&gt;&lt;span style=&quot;background-color: initial; font-size: 18px;&quot;&gt;&lt;font face=&quot;Courier New&quot;&gt;执行节点(Node)&lt;/font&gt;&lt;/span&gt;&lt;/div&gt;" style="text;strokeColor=none;fillColor=none;align=left;verticalAlign=middle;spacingLeft=4;spacingRight=4;overflow=hidden;points=[[0,0.5],[1,0.5]];portConstraint=eastwest;rotatable=0;whiteSpace=wrap;html=1;" parent="1" vertex="1">
          <mxGeometry x="1360" y="110" width="210" height="30" as="geometry" />
        </mxCell>
        <mxCell id="JGUKwS1q1bDIkYwTgo52-32" value="&lt;div style=&quot;text-align: center;&quot;&gt;&lt;span style=&quot;background-color: initial; font-size: 18px;&quot;&gt;&lt;font face=&quot;Courier New&quot;&gt;返回结果(returnObj)&lt;/font&gt;&lt;/span&gt;&lt;/div&gt;" style="text;strokeColor=none;fillColor=none;align=left;verticalAlign=middle;spacingLeft=4;spacingRight=4;overflow=hidden;points=[[0,0.5],[1,0.5]];portConstraint=eastwest;rotatable=0;whiteSpace=wrap;html=1;" parent="1" vertex="1">
          <mxGeometry x="1360" y="160" width="210" height="30" as="geometry" />
        </mxCell>
        <mxCell id="JGUKwS1q1bDIkYwTgo52-33" value="&lt;div style=&quot;text-align: center;&quot;&gt;&lt;span style=&quot;background-color: initial; font-size: 18px;&quot;&gt;&lt;font face=&quot;Courier New&quot;&gt;执行顺序&lt;/font&gt;&lt;/span&gt;&lt;/div&gt;" style="text;strokeColor=none;fillColor=none;align=left;verticalAlign=middle;spacingLeft=4;spacingRight=4;overflow=hidden;points=[[0,0.5],[1,0.5]];portConstraint=eastwest;rotatable=0;whiteSpace=wrap;html=1;" parent="1" vertex="1">
          <mxGeometry x="1025.5" y="67" width="210" height="30" as="geometry" />
        </mxCell>
        <mxCell id="FAXZkEMfxZnQdSqHwnY_-1" value="" style="curved=1;endArrow=classic;html=1;rounded=0;sketch=1;jiggle=2;curveFitting=1;strokeColor=#82b366;align=center;verticalAlign=middle;fontFamily=Helvetica;fontSize=11;fontColor=default;labelBackgroundColor=default;fillColor=#d5e8d4;" parent="1" edge="1">
          <mxGeometry width="50" height="50" relative="1" as="geometry">
            <mxPoint x="980" y="117" as="sourcePoint" />
            <mxPoint x="980" y="167" as="targetPoint" />
            <Array as="points" />
          </mxGeometry>
        </mxCell>
        <mxCell id="FAXZkEMfxZnQdSqHwnY_-2" value="&lt;div style=&quot;text-align: center;&quot;&gt;&lt;span style=&quot;background-color: initial; font-size: 18px;&quot;&gt;&lt;font face=&quot;Courier New&quot;&gt;参数来源(paramSource)&lt;/font&gt;&lt;/span&gt;&lt;/div&gt;" style="text;strokeColor=none;fillColor=none;align=left;verticalAlign=middle;spacingLeft=4;spacingRight=4;overflow=hidden;points=[[0,0.5],[1,0.5]];portConstraint=eastwest;rotatable=0;whiteSpace=wrap;html=1;" parent="1" vertex="1">
          <mxGeometry x="1025.5" y="127" width="230" height="30" as="geometry" />
        </mxCell>
        <mxCell id="YPaQVUYAeXkpW8j93ved-1" value="" style="shape=flexArrow;endArrow=classic;html=1;rounded=0;exitX=0.098;exitY=1.033;exitDx=0;exitDy=0;exitPerimeter=0;entryX=0.098;entryY=-0.033;entryDx=0;entryDy=0;entryPerimeter=0;" edge="1" parent="1">
          <mxGeometry width="50" height="50" relative="1" as="geometry">
            <mxPoint x="510" y="220" as="sourcePoint" />
            <mxPoint x="510" y="264" as="targetPoint" />
          </mxGeometry>
        </mxCell>
        <mxCell id="YPaQVUYAeXkpW8j93ved-2" value="" style="shape=flexArrow;endArrow=classic;html=1;rounded=0;exitX=0.098;exitY=1.033;exitDx=0;exitDy=0;exitPerimeter=0;entryX=0.098;entryY=-0.033;entryDx=0;entryDy=0;entryPerimeter=0;" edge="1" parent="1">
          <mxGeometry width="50" height="50" relative="1" as="geometry">
            <mxPoint x="280" y="380" as="sourcePoint" />
            <mxPoint x="280" y="424" as="targetPoint" />
          </mxGeometry>
        </mxCell>
        <mxCell id="YPaQVUYAeXkpW8j93ved-3" value="" style="shape=flexArrow;endArrow=classic;html=1;rounded=0;exitX=0.098;exitY=1.033;exitDx=0;exitDy=0;exitPerimeter=0;" edge="1" parent="1">
          <mxGeometry width="50" height="50" relative="1" as="geometry">
            <mxPoint x="500" y="540" as="sourcePoint" />
            <mxPoint x="540" y="590" as="targetPoint" />
          </mxGeometry>
        </mxCell>
        <mxCell id="YPaQVUYAeXkpW8j93ved-4" value="" style="shape=flexArrow;endArrow=classic;html=1;rounded=0;exitX=0.098;exitY=1.033;exitDx=0;exitDy=0;exitPerimeter=0;" edge="1" parent="1">
          <mxGeometry width="50" height="50" relative="1" as="geometry">
            <mxPoint x="960" y="480" as="sourcePoint" />
            <mxPoint x="890" y="590" as="targetPoint" />
          </mxGeometry>
        </mxCell>
        <mxCell id="YPaQVUYAeXkpW8j93ved-5" value="" style="shape=flexArrow;endArrow=classic;html=1;rounded=0;exitX=0.098;exitY=1.033;exitDx=0;exitDy=0;exitPerimeter=0;" edge="1" parent="1">
          <mxGeometry width="50" height="50" relative="1" as="geometry">
            <mxPoint x="740" y="200" as="sourcePoint" />
            <mxPoint x="900" y="320" as="targetPoint" />
          </mxGeometry>
        </mxCell>
        <mxCell id="YPaQVUYAeXkpW8j93ved-8" value="" style="endArrow=classic;startArrow=classic;html=1;rounded=0;" edge="1" parent="1">
          <mxGeometry width="50" height="50" relative="1" as="geometry">
            <mxPoint x="760" y="420" as="sourcePoint" />
            <mxPoint x="850" y="420" as="targetPoint" />
          </mxGeometry>
        </mxCell>
        <mxCell id="YPaQVUYAeXkpW8j93ved-9" value="&lt;font face=&quot;Comic Sans MS&quot; style=&quot;font-size: 18px;&quot;&gt;并行&lt;/font&gt;" style="edgeLabel;html=1;align=center;verticalAlign=middle;resizable=0;points=[];" vertex="1" connectable="0" parent="YPaQVUYAeXkpW8j93ved-8">
          <mxGeometry x="-0.0444" y="-2" relative="1" as="geometry">
            <mxPoint as="offset" />
          </mxGeometry>
        </mxCell>
      </root>
    </mxGraphModel>
  </diagram>
</mxfile>
